<svg version="1.1" id="Layer_1" xmlns="http://www.w3.org/2000/svg" x="0" y="0" viewBox="0 0 32 32" xml:space="preserve"><style>.st1{fill-rule:evenodd;clip-rule:evenodd;fill:#d8d8d8;stroke:#1d2b36;stroke-width:1.5}</style><g transform="translate(4 3)" id="Clearly-Night"><path id="Combined-Shape" d="M8.6.8C7.6 2.6 7 4.7 7 7c0 7.2 5.8 13 13 13 1.5 0 3-.3 4.4-.8-2.2 4-6.5 6.8-11.4 6.8-7.2 0-13-5.8-13-13C0 7.4 3.6 2.6 8.6.8z" fill="none" stroke="#1d2b36" stroke-width="1.5" stroke-linecap="round" stroke-linejoin="round"/><path id="Star" class="st1" d="M12.2 6.4l-.1.1v-.2l-.1-.1.2-.1V6l.1.1.2.1-.1.1v.2z"/><path id="Star_1_" class="st1" d="M20 6.6l-.6.2.1-.6-.5-.5.7-.2.3-.5.3.5.7.2-.5.5.1.6z"/><path id="Star_2_" class="st1" d="M15.5 9.8l-.3.1v-.3l-.2-.3h.3l.2-.3.2.3h.3l-.2.3v.3z"/><path id="Star_3_" class="st1" d="M16 2.6l-.6.2.1-.6-.5-.5.7-.2.3-.5.3.5.7.2-.5.5.1.6z"/></g></svg>